<?xml version="1.0" encoding="utf-8"?>
<!-- Generator: Adobe Illustrator 21.0.0, SVG Export Plug-In . SVG Version: 6.00 Build 0)  -->
<svg version="1.1" id="Layer_1" xmlns="http://www.w3.org/2000/svg" xmlns:xlink="http://www.w3.org/1999/xlink" x="0px" y="0px"
	 viewBox="0 0 2137.5 2761.5" style="enable-background:new 0 0 2137.5 2761.5;" xml:space="preserve">
<style type="text/css">
	.st0{fill:#F99B28;}
	.st1{opacity:0.5;}
	.st2{fill:#FFFFFF;}
	.st3{opacity:0.25;}
	.st4{fill:#390075;}
	.st5{opacity:0.4;}
	.st6{opacity:0.3;}
	.st7{fill:#FF6C6C;}
	.st8{fill:#6B184E;}
	.st9{fill:#FF0080;}
	.st10{fill:#00BDFF;}
	.st11{fill:#805EBF;}
</style>
<g>
	<g>
		<g>
			<g>
				<path class="st9" d="M888.9,2099.1c0,0-328.4,323.3-591.7,186.9c-389.4-201.8-205.8-700.5-92-742.1
					c124.3-45.5,160.6,665.6,662.3,389.1L888.9,2099.1z"/>
			</g>
			<g class="st1">
				<g>
					<path class="st2" d="M867.5,1932.9l21.4,166.2c0,0-6.9,6.8-19.5,18l-17.9-139c-501.8,276.5-538-434.5-662.3-389
						c-33.6,12.3-73.2,64.3-102.4,136.8c29.2-95.5,78.2-167.3,118.4-182C329.5,1498.3,365.7,2209.5,867.5,1932.9z"/>
				</g>
			</g>
			<g>
				<path class="st2" d="M880.4,2033.6l8.4,65.5c0,0-328.4,323.3-591.7,186.9c-340.7-176.5-242.8-580.4-136.8-706.5
					c-59.1,175.1-53.9,441.2,205.5,575.5C550.7,2250.8,767.5,2120.1,880.4,2033.6z"/>
			</g>
			<g class="st3">
				<path class="st4" d="M872.8,1974l16.1,125.2c0,0-328.4,323.3-591.7,186.9C75.5,2171.2,39.4,1960.1,70.6,1791.9
					c11,130.9,74.3,264.1,234.4,347.1C525.9,2253.4,792.6,2044.3,872.8,1974z"/>
			</g>
			<g>
				<path class="st4" d="M438.4,2336.2c-53.7,0-103.7-11.7-149.1-35.2C59.9,2182.2,37.8,1973.4,45.1,1859.5
					c10.6-166,89.8-308,154.2-331.6c54.8-20.1,89.4,52.2,133.2,143.6c54.8,114.3,122.9,256.6,250.1,297.3
					c77.5,24.8,170.6,7.8,276.7-50.7c4.9-2.7,10.9-2.8,15.9-0.3c5,2.5,8.4,7.4,9.2,13l21.4,166.2c0.7,5.3-1.1,10.5-4.9,14.3
					c-3.4,3.4-85.1,83.2-200.8,147.3C606.8,2310.2,518.5,2336.2,438.4,2336.2z M216.1,1558.9c-1.7,0-3.4,0.3-5.1,0.9
					C163.9,1577,89,1703.2,79,1861.7c-6.7,105.6,13.7,299.3,226,409.3c230.3,119.3,520.7-136.2,566-178.2l-17.1-133.4
					c-105.8,53.7-200.4,67.8-281.6,41.7c-141.1-45.2-215.8-201.1-270.3-315C270.6,1620.8,240.9,1558.9,216.1,1558.9z"/>
			</g>
			<g class="st5">
				<g>
					<path class="st2" d="M190.9,1769.2c2.4,24.5,40.1,136.1,99.3,133.3c49.4-2.3,39.1-36,19.2-68.7c-34-55.9-51.9-114.4-72-120
						C221.3,1709.3,185.2,1710.5,190.9,1769.2z"/>
				</g>
			</g>
		</g>
		<g>
			<path class="st9" d="M1792.3,2641.6H473.8c0,0-4.4-363.9,164.6-841.9c31.6-89.4,69.3-182.8,114.2-278.6
				c14.2-30.3,29.1-60.9,44.9-91.7h671.1c11.2,22,22.1,44,32.6,65.8c41.3,85.9,76.7,170.1,107.2,251.4
				C1796.9,2250.5,1792.3,2641.6,1792.3,2641.6z"/>
		</g>
		<g>
			<path class="st2" d="M1300.2,1997.1c-94.4,84.9-66.4,385.1-66.4,385.1h-189.3c0,0,7.2-300.2-87.1-385.1
				c-168-151-367-168-281.8-326.8H1582C1625.4,1792.3,1468.1,1846.1,1300.2,1997.1z"/>
		</g>
		<g>
			<path class="st4" d="M1792.2,2658.6H473.8c-9.3,0-16.9-7.5-17-16.8c-0.1-5.8-1.3-145.4,38.2-366.7
				c36.3-203.9,115.7-517.4,287.3-853.6c4.3-8.3,14.5-11.7,22.8-7.4c8.3,4.3,11.7,14.5,7.4,22.8c-169.5,332-248,641.7-284,843.1
				c-31.3,175.2-36.7,300.9-37.7,344.5h1284.2c-0.9-43.6-6.4-169.4-37.7-344.5c-36-201.4-114.4-511.1-284-843.1
				c-4.3-8.3-0.9-18.6,7.4-22.8c8.4-4.3,18.6-0.9,22.8,7.4c171.6,336.1,251,649.7,287.3,853.6c39.4,221.2,38.3,360.8,38.2,366.7
				C1809.1,2651.1,1801.5,2658.6,1792.2,2658.6z"/>
		</g>
		<g>
			<path class="st9" d="M2026.5,2571.6c-70.2,117.2-132.1,136.2-145.8,140.7c-40.2,13.1-136.8-0.7-136.8-0.7s-269.1-27.1-469.9-27.5
				H995.9c-6.2,0-12.4,0-18.6,0.1c-199,1.6-455.3,27.4-455.3,27.4s-96.6,13.8-136.8,0.7c-13.7-4.5-75.6-23.5-145.8-140.7
				c-86.4-144.2-46.4-260.5,8.4-307.9c76.2-65.9,147.8-15.4,198.1,60c8.1-17.1,21.5-34.7,37.8-51.1c30.2-30.5,69.9-56.2,101.7-64.6
				c88-23,177.1,17.9,224.6,102.1h646c47.5-84.2,136.5-125.1,224.6-102.1c49,12.8,116.4,66.8,139.5,115.7
				c50.3-75.5,121.9-125.9,198.1-60C2072.9,2311.1,2113,2427.4,2026.5,2571.6z"/>
		</g>
		<g>
			<path class="st2" d="M2026.6,2571.6c-70.2,117.2-132.2,136.3-145.8,140.7c-40.2,13.1-136.8-0.7-136.8-0.7s-107-10.8-236.4-18.8
				c-75.8-4.7-159.3-8.5-233.5-8.6H995.9c-6.2,0-12.4,0-18.6,0.1c-69.1,0.5-145.1,4-214.8,8.3c-131.2,8-240.4,19-240.4,19
				s-96.6,13.8-136.8,0.7c-13.7-4.5-75.6-23.5-145.8-140.7c-86.4-144.2-46.4-260.5,8.4-307.9c76.2-65.9,147.8-15.4,198,60.1
				c8.1-17.1,21.6-34.7,37.8-51.1c87.1-11.8,75.3,95.5,168.3,141.7c50.6,25.1,115.9,31.2,167,31.3c47.9,0.1,83.5-5.1,83.5-5.1
				s-19.2-24.8-42.2-61.1c-12.8-20.2-26.8-44.1-39.4-69.2h623.9c-11.8,23.8-25,46.4-37.2,65.8c-23.9,38.2-44.3,64.5-44.3,64.5
				s37.9,5.5,88,5.1c50.5-0.4,113.4-6.9,162.5-31.2c93-46.2,81.2-153.5,168.3-141.7c16.2,16.4,29.7,34,37.8,51.1
				c50.3-75.5,121.8-125.9,198-60.1C2072.9,2311.2,2113,2427.4,2026.6,2571.6z"/>
		</g>
		<g class="st6">
			<path class="st4" d="M734,2667.8c2,9.6,12.4,18,28.5,24.8c-131.2,8-240.4,19-240.4,19s-96.6,13.8-136.8,0.7
				c-13.7-4.5-75.6-23.5-145.8-140.7c-47-78.4-56.6-148.5-46.8-203.8c6.1,37.3,20.7,78.4,46.8,122
				c70.2,117.2,132.1,136.3,145.8,140.7c5.6,1.8,12.3,3.1,19.6,4c58.3,7,116.2-14.5,157.6-56.2c23.5-23.8,56.1-47.4,94.3-50.4
				c42.5-3.3,91.8,12.9,143.2,30.9C778,2569.1,720.2,2602.9,734,2667.8z"/>
		</g>
		<g class="st6">
			<path class="st4" d="M2026.6,2571.6c-70.2,117.2-132.2,136.3-145.8,140.7c-40.2,13.1-136.8-0.7-136.8-0.7s-107-10.8-236.4-18.8
				c16.3-6.9,26.9-15.3,28.9-25c13-61.6-38.3-95.1-62.3-107.2c57.5-18.7,109.8-35.8,154.8-31.9c20.2,1.7,46.7,24,69.1,47.3
				c38.9,40.2,92.9,62.7,148.7,59.7c12.9-0.7,24.8-2.3,33.8-5.2c13.7-4.5,75.6-23.5,145.8-140.7c26.1-43.6,40.7-84.6,46.8-121.9
				C2083.1,2423.2,2073.5,2493.3,2026.6,2571.6z"/>
		</g>
		<g>
			<path class="st4" d="M459.5,2313.5c2.6,2.7,4.2,4.7,6.1,7.1c1.7,2.3,3.5,4.7,5,7.1c3.2,4.8,5.8,9.8,8.4,14.8
				c5,10.1,8.6,20.8,11.9,31.5c3.2,10.7,5.7,21.6,7.6,32.5c1.8,11,3.1,22.1,3.2,33.3c0,1.4-1.1,2.5-2.5,2.6c-0.9,0-1.7-0.4-2.1-1.1
				l0,0c-6.3-9.2-11.9-18.6-17.6-27.7l-16.6-27.2c-5.5-8.9-11.2-17.6-16.4-26.4c-2.6-4.4-5.1-8.8-7.5-13.2l-3.5-6.6
				c-1.1-2.1-2.4-4.6-3-6.2l-1.1-2.9c-3.2-8.8,1.3-18.5,10.1-21.7C448,2307,455,2308.9,459.5,2313.5z"/>
		</g>
		<g>
			<path class="st4" d="M1833.6,2334c-0.6,1.6-1.9,4.1-3,6.2l-3.5,6.6c-2.4,4.4-5,8.8-7.5,13.2c-5.1,8.8-10.9,17.5-16.4,26.4
				l-16.6,27.2c-5.7,9.1-11.2,18.5-17.6,27.7l0,0c-0.8,1.1-2.4,1.4-3.5,0.7c-0.7-0.5-1.1-1.3-1.1-2.1c0.2-11.2,1.4-22.3,3.2-33.3
				c1.9-11,4.4-21.8,7.6-32.5c3.2-10.7,6.8-21.4,11.9-31.5c2.5-5,5.2-10,8.4-14.8c1.5-2.4,3.2-4.8,5-7.1c1.9-2.4,3.5-4.4,6.1-7.1
				c6.5-6.7,17.2-6.9,24-0.5c5,4.8,6.4,11.9,4.2,18L1833.6,2334z"/>
		</g>
		<g>
			<path class="st4" d="M1682,2202.7c16.3,2.2,31.6,8,46.2,14.9c7.3,3.5,14.4,7.4,21.3,11.6c6.9,4.2,13.5,8.8,20.1,13.5
				c13.1,9.6,25.2,20.4,36.5,32.5c11,12.2,21.5,25.5,29.4,41.4l-29.7-2.2c18.1-27.9,39.5-54.7,68.8-75.2
				c14.7-10,31.6-18.2,50.3-21.9c18.7-3.7,38.8-2.2,56.5,4.1c8.9,3.2,17.2,7.3,25,11.9c7.7,4.8,14.9,10.1,21.5,15.8
				c13.6,11.8,24.9,25.8,34.2,40.6l6.4,11.4c2.3,3.8,3.7,7.9,5.6,11.8c3.9,7.8,6.3,16.1,9.2,24.3c4.7,16.6,8.3,33.5,9.4,50.6
				c2.7,34.2-1.7,68.4-11.1,100.6c-9.4,32.3-23.5,62.8-40.2,91.3c-16.8,28.1-35.7,55.2-58.1,80c-11.1,12.5-23.3,24.2-36.6,34.8
				c-13.4,10.6-27.7,20.4-44.1,27.6c-4,1.9-8.3,3.5-12.5,5c-3.8,1.4-8.7,2.6-13.4,3.8c-9.1,1.8-17.8,2.9-26.3,3.4
				c-17,1-33.5,0.7-49.8-0.2c-16.4-0.9-32.6-2.4-48.7-4.3l-11.7-1.4l-11.7-1.1l-23.7-2.2c-63.4-5.7-126.9-10.7-190.3-14.7
				c-63.5-4.1-127-7.1-190.5-8.5c-31.7-0.7-63.4-0.7-95.3-0.7H1133h-95.7c-32,0-63.7-0.1-95.3,0.7c-63.4,1.4-127,4.4-190.5,8.5
				c-63.5,4.1-127,9-190.3,14.7l-23.8,2.2l-11.7,1.1l-11.7,1.4c-16.2,1.9-32.4,3.4-48.7,4.3c-16.4,0.9-32.8,1.2-49.8,0.2
				c-8.5-0.5-17.2-1.6-26.3-3.4c-4.7-1.2-9.6-2.4-13.4-3.8c-4.2-1.5-8.5-3.1-12.5-5c-16.4-7.2-30.7-17-44.1-27.6
				c-13.3-10.7-25.5-22.4-36.6-34.8c-22.5-24.7-41.3-51.9-58.1-80c-16.7-28.6-30.8-59-40.2-91.3c-9.4-32.2-13.8-66.4-11.1-100.6
				c0.3-8.6,2-17,3.3-25.5c0.5-4.3,1.9-8.4,2.8-12.6c1.1-4.2,2-8.4,3.3-12.5c2.9-8.1,5.4-16.4,9.3-24.3c1.9-3.9,3.4-8,5.7-11.8
				l6.5-11.4c9.4-14.8,20.7-28.6,34.4-40.3c6.7-5.7,13.9-10.9,21.6-15.6c7.8-4.6,16.1-8.6,24.9-11.7c17.6-6.1,37.5-7.6,55.9-3.9
				c18.5,3.6,35.3,11.7,50,21.5c29.2,20,51.7,46.1,70.2,73.8l-31.6,2.3c2.1-3.9,4-7.9,6.2-11.6c2.4-3.6,4.6-7.3,7.1-10.8
				c4.9-6.9,10.2-13.5,15.8-19.6c11.1-12.3,23.4-23.2,36.4-33c6.6-4.8,13.4-9.3,20.3-13.5c7-4.1,14.2-8,21.6-11.4
				c14.8-6.7,30.6-12,47-13.5c3.2-0.3,5.9,2,6.2,5.2c0.2,2.4-1.1,4.6-3.1,5.6l-0.2,0.1c-13.4,6.7-25.8,14.6-37.7,23.5
				c-6,4.3-11.8,8.9-17.4,13.7c-5.7,4.6-11.2,9.6-16.6,14.6c-10.8,9.9-20.9,20.6-30,31.6c-9,11.1-17,22.8-22.7,34.6
				c-4.4,9.1-15.3,12.9-24.4,8.6c-3-1.4-5.5-3.7-7.2-6.2c-17-25.1-36.1-49-59.5-65.4c-11.7-8-24.2-14.2-37-16.8
				c-12.9-2.5-25.9-1.6-38.4,2.7c-6.3,2.2-12.4,5.2-18.3,8.6c-5.9,3.7-11.7,7.8-17.2,12.4c-10.6,9.1-19.7,20.1-27.4,32.3l-5.3,9.4
				c-1.9,3.1-3.1,6.6-4.7,9.8c-3.3,6.5-5.3,13.5-7.8,20.4c-1.2,3.4-1.9,7.1-2.8,10.6c-0.8,3.6-2,7-2.4,10.7
				c-1,7.3-2.6,14.5-2.8,21.9c-2.3,29.5,1.4,59.6,9.8,88.5c8.4,29,21.2,56.8,36.7,83.3c15.9,26.6,33.7,52.1,54.2,74.6
				c10.1,11.4,21,21.8,32.6,31.1c11.6,9.2,23.9,17.5,36.7,23.1c3.2,1.5,6.4,2.7,9.7,3.9c3.7,1.4,6.6,1.9,9.6,2.8
				c6.6,1.3,13.7,2.2,21.2,2.7c14.8,0.9,30.3,0.6,45.8-0.2c15.5-0.8,31.1-2.3,46.6-4.1l12.1-1.5l12.1-1.2l23.9-2.2
				c63.7-5.8,127.4-10.7,191.3-14.8c63.8-4.1,127.8-7.2,191.9-8.5c32.1-0.7,64.2-0.7,96-0.7h95.7h95.7c31.8,0,63.9-0.1,96,0.7
				c64.1,1.4,128.1,4.5,191.9,8.5c63.8,4.1,127.6,9,191.3,14.8l23.9,2.2l12.1,1.2l12.1,1.5c15.5,1.8,31.1,3.3,46.6,4.1
				c15.5,0.8,30.9,1.1,45.8,0.2c7.4-0.4,14.6-1.4,21.2-2.7c3-0.9,5.9-1.4,9.6-2.8c3.3-1.2,6.5-2.4,9.7-3.9
				c12.9-5.7,25.1-13.9,36.7-23.1c11.6-9.3,22.5-19.7,32.6-31.1c20.5-22.5,38.2-48,54.2-74.6c15.5-26.5,28.3-54.3,36.7-83.3
				c8.4-28.9,12.2-59,9.8-88.5c-0.2-7.4-1.8-14.6-2.8-21.9c-0.4-3.7-1.6-7.1-2.5-10.7c-1-3.5-1.7-7.2-2.9-10.6
				c-2.5-6.8-4.6-13.9-7.9-20.3c-1.6-3.2-2.8-6.7-4.7-9.8l-5.4-9.4c-7.8-12.1-16.9-23-27.5-32c-5.5-4.6-11.3-8.6-17.2-12.2
				c-6-3.4-12.1-6.3-18.3-8.4c-12.5-4-25.2-5-37.9-2.5c-12.7,2.5-25.1,8.5-36.7,16.4c-11.6,8-22.6,17.8-32.7,28.7
				c-10.1,10.9-19.5,22.8-28.2,35.3l-0.3,0.4c-5.4,7.7-16,9.6-23.7,4.3c-2.6-1.8-4.5-4.2-5.7-6.8c-5.5-12-13.3-24-22.5-35.2
				c-9-11.3-19.1-22-29.9-32.1c-5.4-5-11-9.9-16.8-14.6c-5.7-4.7-11.6-9.3-17.7-13.5c-12.1-8.6-24.9-16.2-38.5-22.1l-0.2-0.1
				c-2.9-1.3-4.2-4.6-3-7.5C1677.1,2203.6,1679.6,2202.3,1682,2202.7z"/>
		</g>
		<g class="st6">
			<path class="st4" d="M1608.3,1746.5c-112.6,96.9-273.9,180.1-479.6,184.9c-177.5,4.1-352.6-54.3-490.3-131.7
				c31.6-89.4,69.3-182.8,114.2-278.6c93.4,1.5,143.7-35.5,171-91.7h336.7c37.5,62.9,107.2,96.1,240.9,65.8
				C1542.4,1581,1577.9,1665.2,1608.3,1746.5z"/>
		</g>
		<g class="st6">
			<path class="st4" d="M1536.6,2667.8c-2.1,9.7-12.6,18.1-28.9,25c-11.7-0.7-23.5-1.4-35.5-2.1c-3.3-0.2-6.6-0.4-9.9-0.5
				c-4.2-0.3-8.4-0.5-12.6-0.7c-4.9-0.3-9.8-0.5-14.8-0.8c-10.9-0.5-21.8-1-32.7-1.5c-4-0.1-7.9-0.3-11.9-0.5
				c-10.1-0.4-20.2-0.8-30.2-1.1c-9.4-0.3-18.7-0.5-28-0.8h-0.9c-4.9-0.1-9.7-0.2-14.5-0.3c-4.7-0.1-9.3-0.2-13.9-0.2h-0.5
				c-6.3-0.1-12.6-0.1-18.8-0.2c-3.2,0-6.3,0-9.5,0H995.9c-6.2,0-12.4,0-18.6,0.1c-9.3,0.1-18.8,0.2-28.3,0.4
				c-9.6,0.2-19.2,0.4-28.9,0.7c-6.5,0.2-13,0.4-19.5,0.6c-9.6,0.3-19.1,0.7-28.7,1c-23.3,0.9-46.7,2.1-69.6,3.3
				c-9,0.5-17.9,1-26.7,1.5c-4.4,0.3-8.7,0.5-13.1,0.8h0c-16-6.9-26.4-15.2-28.5-24.8c-13.8-64.9,44.1-98.7,65.9-109
				c5-2.3,8.1-3.5,8.1-3.5s-3.8-11.8-9.8-33c-5-17.6,4-45,20.9-76.6c11-20.7,25.3-43.3,41.3-66.3c16.2-23.2,34-46.8,51.9-69.2
				c55.7-70.2,110.7-129,110.7-129s28.4,51.7,52.7,129c25.1,79.7,45.9,186.6,27.1,292.1h64.9c-18.8-105.5,2.1-212.5,27.2-292.1
				c24.3-77.3,52.7-129,52.7-129s55,58.8,110.7,129c17,21.3,34,43.7,49.5,65.8c17,24.1,32.2,47.9,43.7,69.6
				c16.9,31.7,25.8,59,20.9,76.6c-6,21.2-9.8,33-9.8,33s4.7,1.7,11.8,5.2C1498.3,2572.7,1549.6,2606.2,1536.6,2667.8z"/>
		</g>
		<g>
			<path class="st9" d="M1608.7,2667.8c-12.4,58.3-323.9,67.8-358.4-20.7c-22.9-58.8-20.4-204.2-14.1-317l0,0
				c4.6-83.2,11.3-148.8,11.3-148.8l363.2-152.4c5.2,212.9-44.6,416-66.3,493.5c-6,21.2-9.8,33-9.8,33S1625.6,2588.1,1608.7,2667.8z
				"/>
		</g>
		<g>
			<path class="st2" d="M1608.7,2667.8c-12.4,58.3-323.9,67.8-358.4-20.7c-22.9-58.8-20.4-204.2-14.1-317l0,0
				c0,0,6.9,120.9,89,159.1c64.7,30.1,136.3,16.8,219.2,33.2c-6,21.2-9.8,33-9.8,33S1625.6,2588.1,1608.7,2667.8z"/>
		</g>
		<g>
			<path class="st4" d="M1253.2,2181.8c7.4,42.7,4.5,84.2,2.7,126c-2.3,41.6-6.1,83.2-6.6,124.9c-0.7,41.6-0.6,83.2,2.4,124.1
				c1.5,20.4,3.7,40.8,7.8,60c0.9,4.9,2.3,9.4,3.4,14.1c0.6,2.3,1.5,4.4,2.2,6.6l1.1,3.3l1,2.4c2.9,6.1,8.3,12,15.3,17.1
				c14,10.3,32.7,17.3,51.6,22.4c19.1,5.1,39.1,8.4,59.2,10.4c40.3,4,81.6,3.7,121.5-1.6c19.8-2.7,39.8-6.7,57-13.5
				c4.2-1.7,8.2-3.6,11.7-5.7c3.4-2,6.2-4.4,7.6-6.1c0.7-0.9,0.9-1.4,1-1.7c0-0.1,0-0.1,0.1-0.1c0.1-0.2,0.2-1,0.3-1.5l0.6-3.2
				c0.7-4.3,0.9-8.5,0.9-12.7c-0.3-8.4-2-16.4-5.4-24.1c-3.4-7.6-8.2-14.8-14.3-21.3c-6-6.5-13.2-12.4-21-17.5
				c-3.9-2.6-7.9-4.9-12.1-7.1c-2.1-1.1-4.2-2.1-6.3-3.1c-2-0.9-4.4-2-5.9-2.5c-8.6-3.2-13-12.6-10.4-21.2
				c12.8-41.5,23.7-84.6,33.2-127.6c9.6-43.1,17.5-86.5,24-130.1c3.5-21.8,5.9-43.7,8.7-65.6c1.2-10.9,2.1-21.9,3.2-32.9l1.6-16.4
				c0.4-5.5,0.6-11,1-16.5l1.2-33c0.1-11,0.5-22,1.3-32.9c0.6-5.5,1-11,1.6-16.5c0.5-5.5,1.1-11,2-16.5c0.9-5.5,2-11,3.4-16.5
				c1.4-5.5,3-11.1,5.3-16.7l0.1-0.2c1.3-3.1,4.8-4.6,7.9-3.3c1.5,0.6,2.7,1.8,3.3,3.2c2.4,5.5,4.1,11.1,5.5,16.7
				c1.5,5.6,2.6,11.2,3.6,16.8c0.9,5.6,1.7,11.3,2.2,16.9c0.4,5.6,0.4,11.3,0.6,16.9c0.1,11.3-0.2,22.5-0.8,33.8l-3.1,33.6
				l-1.2,16.8l-1.6,16.8c-1.1,11.2-2.1,22.4-3.3,33.6c-2.8,22.3-5.3,44.6-8.8,66.8c-6.6,44.4-14.7,88.6-24.4,132.4
				c-9.7,43.9-20.6,87.1-34.1,130.7l-10.4-21.2c3.5,1.3,5.8,2.4,8.6,3.6c2.7,1.2,5.3,2.5,7.8,3.9c5.1,2.7,10.1,5.6,15,8.8
				c9.7,6.4,18.9,13.9,27.1,22.8c8.2,8.8,15.4,19.2,20.5,30.7c5.1,11.6,7.9,24.3,8.2,36.9c0,6.3-0.3,12.5-1.3,18.6l-0.8,4.5
				c-0.2,0.8-0.2,1.4-0.5,2.4c-0.3,1.2-0.7,2.4-1,3.6c-1.6,4.7-4.1,8.8-6.7,11.9c-5.3,6.5-11,10.5-16.5,13.9
				c-5.6,3.3-11.1,5.9-16.5,8.1c-21.9,8.6-43.5,12.6-65.1,15.7c-43.2,5.6-86.4,6-129.5,1.7c-21.6-2.2-43.1-5.7-64.5-11.4
				c-21.3-5.9-42.9-13.4-63-27.8c-9.9-7.2-19.5-16.8-25.8-29.7c-0.7-1.6-1.5-3.3-2.1-4.8l-1.4-4.2c-0.9-2.8-2-5.6-2.7-8.4
				c-1.4-5.5-3.1-11.1-4-16.5c-4.5-21.8-6.8-43.2-8.4-64.6c-3.1-42.7-3.2-85-2.5-127.3c1.1-42.2,1.1-84.4,4.1-126.5
				c3.5-42,7-84,22.5-124.8c1.1-3,4.5-4.5,7.6-3.4C1251.5,2178,1252.8,2179.7,1253.2,2181.8L1253.2,2181.8z"/>
		</g>
		<g>
			
				<ellipse transform="matrix(0.4065 -0.9137 0.9137 0.4065 -1136.7933 3226.7029)" class="st11" cx="1915.2" cy="2488.4" rx="64.8" ry="50.5"/>
		</g>
		<g>
			
				<ellipse transform="matrix(0.3613 -0.9324 0.9324 0.3613 -1017.7305 3280.459)" class="st11" cx="1885.8" cy="2383.1" rx="32.9" ry="28.3"/>
		</g>
		<g>
			
				<ellipse transform="matrix(0.2989 -0.9543 0.9543 0.2989 -882.5377 3533.1812)" class="st11" cx="1963.3" cy="2367.2" rx="36" ry="31"/>
		</g>
		<g>
			
				<ellipse transform="matrix(0.3613 -0.9324 0.9324 0.3613 -986.4492 3413.521)" class="st11" cx="1998.5" cy="2426.8" rx="23.9" ry="21.4"/>
		</g>
		<g>
			
				<ellipse transform="matrix(0.9137 -0.4065 0.4065 0.9137 -979.4722 355.116)" class="st11" cx="346.1" cy="2483.1" rx="50.5" ry="64.8"/>
		</g>
		<g>
			
				<ellipse transform="matrix(0.9324 -0.3613 0.3613 0.9324 -833.7505 296.3467)" class="st11" cx="375.6" cy="2377.8" rx="28.3" ry="32.9"/>
		</g>
		<g>
			
				<ellipse transform="matrix(0.9543 -0.2989 0.2989 0.9543 -692.3724 197.0808)" class="st11" cx="298.1" cy="2361.9" rx="31" ry="36"/>
		</g>
		<g>
			
				<ellipse transform="matrix(0.9324 -0.3613 0.3613 0.9324 -857.1539 258.5516)" class="st11" cx="262.9" cy="2421.5" rx="21.4" ry="23.9"/>
		</g>
		<g>
			<path class="st9" d="M1026.9,2647.1c-34.4,88.5-346,79.1-358.3,20.7c-16.9-79.7,74-112.4,74-112.4s-3.7-11.5-9.5-32.2
				c-21.6-76.8-71.8-280.6-66.5-494.3l363.2,152.4c0,0,8,78.4,12.5,172.7C1047.5,2462.6,1048.2,2592.3,1026.9,2647.1z"/>
		</g>
		<g>
			<path class="st2" d="M1026.9,2647.1c-34.4,88.5-346,79.1-358.3,20.7c-16.9-79.7,74-112.4,74-112.4s-3.7-11.5-9.5-32.2
				c84.6-17.8,157.5-3.5,223.3-34.1c59.2-27.5,79.3-97.9,85.9-135.2C1047.5,2462.6,1048.2,2592.3,1026.9,2647.1z"/>
		</g>
		<g>
			<path class="st4" d="M1035.3,2180.6c15.5,40.8,19,82.8,22.5,124.8c2.9,42,2.9,84.3,4.1,126.5c0.7,42.3,0.6,84.6-2.5,127.3
				c-1.6,21.4-3.9,42.8-8.4,64.6c-1,5.4-2.6,11-4,16.5c-0.7,2.8-1.8,5.6-2.7,8.4l-1.4,4.2c-0.6,1.5-1.4,3.2-2.1,4.8
				c-6.3,12.8-15.9,22.5-25.8,29.7c-20,14.4-41.6,21.9-63,27.8c-21.4,5.7-43,9.2-64.5,11.4c-43.1,4.3-86.3,3.9-129.5-1.7
				c-21.6-3-43.2-7.1-65.1-15.7c-5.5-2.2-11-4.8-16.6-8.1c-5.5-3.4-11.2-7.4-16.5-13.9c-2.6-3.2-5-7.2-6.7-11.9
				c-0.4-1.2-0.7-2.4-1-3.6c-0.2-1-0.3-1.6-0.5-2.4l-0.8-4.5c-1-6.1-1.3-12.3-1.3-18.6c0.3-12.6,3.1-25.4,8.2-36.9
				c5.1-11.6,12.3-21.9,20.5-30.7c8.2-8.9,17.5-16.3,27.1-22.8c4.9-3.2,9.9-6.1,15-8.8c2.6-1.3,5.2-2.6,7.8-3.9
				c2.8-1.3,5.1-2.3,8.6-3.6l-10.4,21.2c-13.5-43.6-24.3-86.8-34.1-130.7c-9.8-43.8-17.8-88-24.4-132.4c-3.5-22.2-6.1-44.5-8.8-66.8
				c-1.2-11.2-2.2-22.4-3.3-33.6l-1.6-16.8l-1.2-16.8l-3.1-33.6c-0.7-11.2-0.9-22.5-0.8-33.8c0.2-5.6,0.2-11.3,0.6-16.9
				c0.5-5.6,1.2-11.3,2.2-16.9c0.9-5.6,2.1-11.2,3.6-16.8c1.4-5.6,3.1-11.2,5.5-16.7c1.3-3.1,4.9-4.5,8-3.2c1.5,0.6,2.6,1.8,3.2,3.3
				l0.1,0.2c2.3,5.6,3.9,11.1,5.3,16.7c1.5,5.5,2.5,11,3.4,16.5c0.9,5.5,1.6,11,2,16.5c0.7,5.5,1.1,11,1.6,16.5
				c0.8,11,1.2,21.9,1.3,32.9l1.2,33c0.3,5.5,0.6,11,1,16.5l1.6,16.4c1.1,11,2,21.9,3.2,32.9c2.7,21.9,5.2,43.8,8.7,65.6
				c6.5,43.6,14.4,87.1,24,130.1c9.5,43,20.4,86.1,33.2,127.6c2.7,8.7-2,18-10.4,21.2c-1.4,0.5-3.9,1.6-5.9,2.5
				c-2.1,1-4.2,2-6.3,3.1c-4.1,2.2-8.2,4.6-12.1,7.1c-7.8,5.2-14.9,11-21,17.5c-6.1,6.5-10.9,13.7-14.3,21.3
				c-3.3,7.6-5.1,15.7-5.4,24.1c0,4.2,0.2,8.4,0.9,12.7l0.6,3.2c0.1,0.5,0.2,1.2,0.3,1.5c0.1,0,0.1,0.1,0.1,0.1
				c0.1,0.2,0.3,0.8,1,1.7c1.3,1.7,4.1,4,7.6,6.1c3.4,2.1,7.4,4,11.7,5.7c17.2,6.8,37.1,10.8,57,13.5c40,5.3,81.2,5.6,121.5,1.6
				c20.1-2.1,40.1-5.3,59.2-10.4c19-5.1,37.6-12.1,51.6-22.4c7-5.1,12.4-11,15.3-17.1l1-2.4l1.1-3.3c0.7-2.2,1.5-4.3,2.2-6.6
				c1.2-4.7,2.6-9.2,3.4-14.1c4-19.2,6.2-39.6,7.8-60c3-40.9,3.1-82.6,2.4-124.1c-0.5-41.6-4.3-83.2-6.6-124.9
				c-1.8-41.7-4.7-83.3,2.7-126l0-0.1c0.6-3.2,3.6-5.3,6.8-4.8C1033,2177.3,1034.6,2178.8,1035.3,2180.6z"/>
		</g>
		<g class="st3">
			<path class="st4" d="M1026.9,2647c-34.4,88.5-346,79.1-358.3,20.7c-2-9.7-2.5-18.7-1.7-27c88.4,28.5,283.6,17.1,317.3-50.3
				c49.6-99.4,4.6-190.4,15.4-293.1c4.6-44,13.3-84.5,30.3-115c1,10,8.2,83.9,12.4,171.5C1047.5,2462.6,1048.2,2592.3,1026.9,2647z"
				/>
		</g>
		<g class="st3">
			<path class="st4" d="M1250.6,2647c34.4,88.5,346,79.1,358.3,20.7c2-9.7,2.5-18.7,1.7-27c-88.4,28.5-283.6,17.1-317.3-50.3
				c-49.6-99.4-4.6-190.4-15.4-293.1c-4.6-44-13.3-84.5-30.3-115c-1,10-8.2,83.9-12.4,171.5
				C1229.9,2462.6,1229.2,2592.3,1250.6,2647z"/>
		</g>
		<g>
			<path class="st4" d="M867.6,2598.5c1.4,11.2,2.1,21.4,2.9,31.3c0.8,9.8,1.4,19.2,3.2,27.9c1.7,8.6,4.4,16.4,8,22.4
				c1.7,3.1,3.9,5.6,6,8.1c2.3,2.3,4.9,4.4,7.7,6.6l1.4,1.1c7.4,5.7,8.8,16.4,3.1,23.8c-5,6.4-13.7,8.3-20.7,5
				c-6-2.9-11.8-6.8-16.7-11.8c-4.9-4.9-8.7-10.8-11.7-16.7c-5.8-12.1-7.4-24.7-7.1-36.4c0.4-11.7,2.5-22.8,6.5-33.1
				c2-5.2,4.3-10.1,7.3-14.8C860.2,2607,863.5,2602.5,867.6,2598.5z"/>
		</g>
		<g>
			<path class="st4" d="M768.8,2595.3c-1.5,5.9-1.8,11.2-2.1,16.6l-0.2,8l0,7.9c0.2,10.4,0.4,20.6,1.6,30.4
				c1.1,9.7,3.3,19.2,6.5,26.1c1.5,3.5,3.4,5.9,4.6,7.1c1.4,1.1,1.8,1.6,3.9,2.3l3.3,1.1c8.8,2.9,13.6,12.4,10.7,21.3
				c-2.3,6.9-8.7,11.4-15.6,11.6c-8.9,0.2-19.2-3.8-25.9-10.1c-7-6.2-10.7-13.6-13.2-20.3c-4.8-13.7-5.1-26.4-4.2-38.6
				c1-12.2,3.6-24,8.3-35.1c1.2-2.8,2.5-5.5,4-8.1c1.5-2.7,3-5.2,4.9-7.7C758.9,2602.7,763.3,2598,768.8,2595.3z"/>
		</g>
		<g>
			<path class="st4" d="M1413.7,2598.5c4.1,4,7.4,8.5,10.2,13.2c2.9,4.7,5.3,9.7,7.3,14.8c4,10.3,6.1,21.4,6.5,33.1
				c0.3,11.7-1.3,24.3-7.1,36.4c-3,5.9-6.8,11.8-11.7,16.7c-4.9,4.9-10.6,8.9-16.7,11.8c-8.4,4-18.6,0.4-22.6-8
				c-3.5-7.3-1.2-15.9,4.9-20.7l1.4-1.1c2.8-2.2,5.4-4.3,7.7-6.6c2.2-2.5,4.3-5,6-8.1c3.7-6,6.3-13.8,8-22.4
				c1.7-8.7,2.4-18,3.2-27.9C1411.7,2619.9,1412.4,2609.7,1413.7,2598.5z"/>
		</g>
		<g>
			<path class="st4" d="M1512.5,2595.3c5.5,2.7,9.9,7.4,13.5,12.3c1.8,2.5,3.4,5,4.9,7.7c1.5,2.6,2.8,5.3,4,8.1
				c4.7,11.1,7.3,22.9,8.3,35.1c0.9,12.2,0.6,24.9-4.2,38.6c-2.6,6.7-6.3,14.1-13.2,20.3c-6.7,6.3-17,10.3-25.9,10.1
				c-9.3-0.2-16.7-7.9-16.5-17.2c0.2-7.3,5-13.4,11.5-15.6l3.3-1.1c2.1-0.7,2.5-1.2,3.9-2.3c1.2-1.2,3.2-3.6,4.6-7.1
				c3.2-6.8,5.4-16.4,6.5-26.1c1.3-9.8,1.5-20,1.6-30.4l0-7.9l-0.2-8C1514.3,2606.5,1514,2601.2,1512.5,2595.3z"/>
		</g>
		<g>
			<g class="st6">
				<g>
					<path class="st2" d="M2009.3,308.5c-16.2-7.8-34.2-10.2-54-6.3c-247.1,49-438.9,251.4-524.8,357.8
						c-26.2,32.4-74.5,35.5-104.8,6.8l0,0c0,0,235-356.5,574.2-423.8C1946.8,233.7,1983.7,259.8,2009.3,308.5z"/>
				</g>
				<g>
					<path class="st4" d="M1375.1,688.7c-18.8,0-37.2-7.3-50.9-20.3l-1.4-1.3l1-1.6c2.4-3.6,239.4-358.1,575.6-424.8
						c45.4-9,84.1,14.1,111.8,66.6l3.2,6.1l-6.2-3c-16.1-7.8-33.7-9.8-52.6-6.1c-243.6,48.3-432.5,244.4-523.5,357
						c-12.9,15.9-32,25.8-52.4,27.2C1378.3,688.7,1376.7,688.7,1375.1,688.7z M1328.7,666.4c13.8,12.4,32.3,18.8,50.9,17.6
						c19.5-1.3,36.9-10.3,49.2-25.5c91.4-113.1,281.2-310,526.2-358.6c17.4-3.4,34-2.2,49.3,3.8c-26.4-46.5-62.2-66.8-103.8-58.5
						C1577.5,309.2,1346.4,640.4,1328.7,666.4z"/>
				</g>
			</g>
			<g>
				<path class="st11" d="M1747.9,928.3c-18.6-57.2-88-128.5-147.2-181.5c-53.5-47.8-54.7-130.9-3.3-181
					c90.4-88.2,195.1-145.2,265.4-177.1c41.6-18.9,89.1,10.4,91.2,56.1c3.2,70.8-3.7,177.7-52.2,295.7
					c-52.5,127.7-146.1,186.7-146.1,186.7"/>
				<path class="st4" d="M1756.9,929.2l-2.4-3.8c0.9-0.6,93.6-60.2,145.2-185.6c48.7-118.4,55.2-225.7,52.1-294.8
					c-0.9-20.8-12.1-39.6-29.8-50.5c-17.9-11-39.1-12.3-58.2-3.6c-71.3,32.3-175.1,89.2-264.8,176.6c-24.2,23.6-37.7,56.5-36.9,90.2
					c0.7,33.9,15,64.9,40.2,87.5c57,50.9,128.8,124,147.9,182.5l-4.3,1.4c-18.7-57.6-90.1-129.9-146.6-180.5
					c-26.1-23.4-41-55.6-41.7-90.7c-0.8-35,13.2-69.1,38.3-93.5c90.1-87.9,194.4-145.1,266.1-177.5c20.2-9.1,43.5-7.7,62.4,3.9
					c19,11.6,30.9,31.9,31.9,54.1c3.2,69.6-3.4,177.5-52.4,296.7C1851.6,868.3,1757.8,928.6,1756.9,929.2z"/>
			</g>
			<g>
				<path class="st11" d="M1710.3,765c-9.1,22.1-19.4,42.1-30.2,60.1c-24.9-27.8-53.2-54.8-79.3-78.2c-53.5-47.8-54.7-130.9-3.4-181
					c51.4-50.1,107.4-90.2,159.1-121.3c3.6,7.4,5.7,15.8,6.1,24.8C1765.7,540.1,1758.8,647,1710.3,765z"/>
				<path class="st4" d="M1680.4,828.9l-2-2.3c-21.8-24.3-48.5-50.6-79.2-78.1c-26.1-23.4-40.9-55.6-41.7-90.7
					c-0.8-35,13.2-69.1,38.3-93.6c45.5-44.4,99.2-85.3,159.5-121.6l2.1-1.3l1.1,2.2c3.8,8,5.9,16.6,6.3,25.7
					c3.1,69.6-3.4,177.5-52.5,296.6v0c-8.4,20.6-18.7,40.9-30.4,60.4L1680.4,828.9z M1755.4,447.7
					c-59.2,35.8-111.8,76.1-156.5,119.7c-24.2,23.6-37.7,56.6-36.9,90.3c0.7,33.9,15,64.9,40.2,87.4c29.9,26.7,55.9,52.3,77.5,76.1
					c10.9-18.5,20.5-37.7,28.5-57.2v0c48.7-118.4,55.2-225.6,52.1-294.7C1760,461.8,1758.4,454.5,1755.4,447.7z"/>
			</g>
			<g class="st6">
				<g>
					<path class="st2" d="M563,96.1c17.7-2.9,35.6,0,53.5,9.5c222.6,117.9,348.1,367,399.9,493.6c15.8,38.6,61.2,55.4,98.4,36.6l0,0
						c0,0-122.6-409-428.2-570.9C644.4,42.5,601.6,56.9,563,96.1z"/>
				</g>
				<g>
					<path class="st4" d="M1082.5,645.7c-8.7,0-17.5-1.5-25.8-4.6c-19.2-7.2-34.6-22.1-42.4-41.1c-54.8-134-179.4-376.2-398.8-492.4
						c-17-9-34.5-12.1-52.1-9.2l-6.8,1.1l4.8-4.9c41.7-42.4,85.3-53.4,126.3-31.7c302.9,160.5,428,568.2,429.3,572.3l0.5,1.8
						l-1.7,0.9C1105.4,643.1,1094,645.7,1082.5,645.7z M576,92.8c14.1,0,28,3.6,41.6,10.8c220.7,116.9,345.9,360.1,400.9,494.7
						c7.4,18,21.5,31.7,39.8,38.6c17.5,6.5,37,5.7,53.8-2.3c-9.5-30-135.7-413.7-426.5-567.8C648.1,47,608,56.1,569.3,93.1
						C571.6,92.9,573.8,92.8,576,92.8z"/>
				</g>
			</g>
			<g>
				<path class="st11" d="M635.3,764.9c34.3-49.4,121.2-97.8,193.2-131.5c64.9-30.4,90-109.7,55.2-172.4
					c-61.2-110.4-145.2-195.2-203.3-245.9c-34.5-30-88.4-15.6-103.5,27.5c-23.4,66.9-47.5,171.3-35,298.3
					c13.6,137.4,86.3,220.8,86.3,220.8"/>
				<path class="st4" d="M637.1,766.2l-3.7-2.6c35.1-50.6,124.9-99.8,194.1-132.3c30.6-14.3,53.2-40,63.6-72.2
					c10.4-32.1,6.9-67.5-9.5-97C821,352.6,737.9,268.3,678.9,216.9c-15.8-13.8-36.5-18.6-56.8-13.2c-20.1,5.3-36.2,20.2-43,39.8
					c-22.9,65.3-47.5,169.9-34.8,297.3c13.4,135,85,218.7,85.7,219.5l-3.4,3c-0.7-0.8-73.3-85.6-86.8-222.1
					c-12.7-128.3,12.1-233.5,35.1-299.2c7.4-21,24.6-37,46.2-42.7c21.4-5.7,44.2-0.4,60.9,14.2c59.3,51.7,142.8,136.4,203.8,246.5
					c17,30.7,20.6,67.3,9.8,100.6c-10.8,33.4-34.3,60-66,74.9C760.7,667.7,671.6,716.5,637.1,766.2z"/>
			</g>
			<g>
				<path class="st11" d="M718.3,619.3c2.3,23.7,6.5,45.9,11.7,66.2c31.9-19.4,66.7-37.2,98.5-52.1c65-30.4,90-109.7,55.3-172.4
					c-34.8-62.8-76.9-117.2-117.5-161.9c-5.5,6.1-10,13.5-13,22C729.8,388,705.7,492.4,718.3,619.3z"/>
				<path class="st4" d="M728.5,689.1l-0.8-3c-5.6-22-9.6-44.4-11.7-66.6v0c-12.7-128.2,12-233.5,35-299.2c3-8.5,7.5-16.2,13.4-22.8
					l1.7-1.8l1.7,1.8c47.4,52.1,87,106.8,117.8,162.3c17,30.7,20.5,67.4,9.7,100.7c-10.8,33.4-34.3,60-66,74.9
					c-37.3,17.5-70.4,35-98.3,52L728.5,689.1z M766.2,302.5c-4.7,5.7-8.4,12.2-10.9,19.3c-22.8,65.3-47.4,169.9-34.8,297.3l0,0
					c2.1,20.9,5.7,42.1,10.9,62.9c27.5-16.6,59.8-33.6,96.1-50.7c30.6-14.3,53.2-40,63.6-72.2c10.4-32.1,7-67.5-9.4-97.1
					C851.5,407.5,812.6,353.8,766.2,302.5z"/>
			</g>
			<g>
				<path class="st9" d="M1932.4,1447.3c-56.9-40.2-93.2-151.6-99.4-205.5c-3.6-31.2-14.4-93.3-22.8-140.2
					c324.8-200.6,318.7-896.8,104.7-854.4c-241.6,47.9-430.3,242.5-518.9,350.5c-91.1-35.4-159.8-40.3-159.8-40.3s-69-15.4-168.4-7
					c-53.6-128.7-178.5-370.2-396.6-485.8C477.7-37.9,270.9,632.4,528.7,916.2c-21.4,42.2-48.7,97-60.9,125.2
					c-21.5,49.9-88.3,146.1-154.3,168.3c-38.9,13.1-45.1,43-23.5,69.3c13.9,16.9,39.2,32.3,74.7,40.8c2.8,0.7,5.7,1.3,8.7,1.9
					c0,0,0,0-0.2,0.1c0,0,0,0,0,0c-2.4,1.1-22.3,10.1-73.3,34c-50,23.5-19.2,68.9,51.6,120.4c70.7,51.4,155.7,159.3,173.9,176.1
					c10.7,9.8,66.6,70,180.5,128.5c81,41.6,191.4,82.4,335.6,103.6l0,0c346.9,50.9,538.7-63,561-73.9
					c22.3-10.8,134.7-89.8,217.3-118.7c82.5-28.9,125.1-63.6,83.9-100.5c-44.9-40.2-60.6-53.8-60.6-53.8c2.9,0.3,5.8,0.5,8.6,0.7
					c36.5,2.1,65.4-5.4,83.6-17.6C1963.3,1501.4,1966,1471,1932.4,1447.3z"/>
			</g>
			<g class="st5">
				<g>
					<path class="st2" d="M1905.6,310.4c-203.9,40.4-357.7,207.3-454,323.4c-27.8,33.5-72.9,47.5-114.7,35.2
						c-63.3-18.6-113.3-26.1-113.3-26.1s-51.4-7.4-119-7.6c-43.8-0.1-83.4-26-100.4-66.3C945.4,430.1,846,225.4,661.8,127.8
						C559.1,73.4,452.7,236.7,414,444.5C439.7,205.7,558.2-1.8,672,58.6c218.1,115.6,343,357,396.6,485.8c99.5-8.4,168.4,7,168.4,7
						s68.7,5,159.8,40.3c88.7-108.1,277.3-302.7,518.9-350.6c126.4-25.1,180.3,207.7,136.2,443.8
						C2074.6,474.8,2019.6,287.8,1905.6,310.4z"/>
				</g>
			</g>
			<g>
				<path class="st2" d="M1819.6,1691.6c-82.6,28.9-195,107.9-217.3,118.7c-22.3,10.9-214.1,124.8-561,73.9l0,0
					c-144.2-21.2-254.6-61.9-335.6-103.6c-113.9-58.4-169.8-118.6-180.5-128.5c-18.2-16.8-103.2-124.7-173.9-176.1
					c-70.8-51.4-101.6-96.9-51.6-120.4c51-23.9,70.9-32.9,73.3-34c0,0,0,0,0,0c0.1-0.1,0.2-0.1,0.2-0.1c-2.9-0.6-5.9-1.2-8.7-1.9
					c12-2.2,25.2-3.9,39.8-5.2c117.6-10.1,240.1,168.3,452.7,119.3c163.2-37.6,152-409.1,206.7-497.3c0.6-0.9,1.1-1.8,1.7-2.7
					c57.7-91,196.5-70.6,225.6,33.1c0.3,1,0.6,2,0.9,3c27,100.2-90.4,452.8,55,535.7c189.6,108,358.2-27.6,467.9,15.9
					c13.6,5.4,25.7,10.9,36.7,16.4c-2.8-0.2-5.7-0.4-8.6-0.7c0,0,15.7,13.6,60.6,53.8C1944.7,1628,1902.2,1662.7,1819.6,1691.6z"/>
			</g>
			<g>
				<path class="st4" d="M1396,615.8c-2.2,0-4.4-0.4-6.5-1.2c-87.2-33.9-153.9-39.1-154.6-39.2c-0.9-0.1-1.8-0.2-2.6-0.4
					c-0.7-0.1-67.8-14.7-162.9-6.6c-10.1,0.8-18.7-6.5-19.5-16.5c-0.8-9.9,6.5-18.7,16.5-19.5c94.7-8,162.1,4.9,172.5,7.1
					c10.4,0.9,77,7.7,163.7,41.4c9.3,3.6,13.9,14.1,10.3,23.4C1410,611.4,1403.2,615.8,1396,615.8z"/>
			</g>
			<g>
				<path class="st4" d="M820,1836.2c-14.1-3.6-28.6-6.6-42.4-11.5c-6.9-2.4-14.1-4.4-20.9-7l-20.5-8c-27.1-11.4-53.6-24.2-79-38.9
					c-50.9-29.5-98.7-63.6-142.7-103.2c-2.5-2.2-6.4-6.1-8.6-8.7c-2.6-2.8-5.2-5.6-7.6-8.3l-14.4-16.4l-28.4-32.4
					c-19-21.4-38.1-42.5-58.3-62.4c-10-10-20.3-19.5-30.8-28.8c-5.3-4.4-10.5-9.1-16-13.2l-8.2-6.3l-8.9-6.6
					c-11.9-9-23.6-18.4-34.7-28.9c-11.1-10.6-22-21.9-30.9-36.8c-4.4-7.5-8.4-16.3-9.7-27.2c-1.5-10.8,2.1-24.3,9.3-32.8
					c7-8.9,15.3-13.9,23.1-17.9c2.1-1.1,3.6-1.7,5.3-2.5l4.9-2.3l9.8-4.6l39.3-18.3l4.9-2.3l0.6-0.3l0.3-0.1l-0.8,0.4
					c-1.4,0.8-2.7,1.9-3.8,3.1c-2.2,2.6-3.2,5.8-3.3,8.6c0,2.9,0.8,5.8,3,8.6c1.1,1.4,2.6,2.6,4.1,3.5c0.8,0.4,1.6,0.8,2.4,1
					c0.3,0.1,1,0.3,1,0.3l-0.4-0.1l-5.7-1.5c-7.5-2.1-15-4.6-22.4-7.6c-14.7-6-29.1-13.9-41.9-25.2c-6.4-5.7-12.4-12.2-17.4-20
					c-4.9-7.8-8.9-17.2-10-27.8c-1-10.6,1.4-22.4,7.2-31.5c5.7-9.2,13.4-15.9,21.3-20.7l6-3.3l6-2.8l6.1-2.3c2-0.7,3-1.2,4.5-1.8
					c2.8-1.3,5.7-2.1,8.5-3.6l8.4-4.5c22.2-13.3,42.5-32.2,60.5-53.1c18.1-20.8,34.3-43.8,48.2-67.6l5.1-9l4.7-9.1
					c1.5-3,2.8-6,4.2-9.1l4.5-10c6.1-13.5,12.3-26.5,18.7-39.6c12.7-26.1,25.7-51.9,38.7-77.7c4.4-8.6,14.9-12.1,23.5-7.7
					c8.6,4.4,12.1,14.9,7.7,23.5l0,0c-13,25.7-25.9,51.4-38.4,77.2c-6.2,12.9-12.5,25.8-18.2,38.7l-4.3,9.7
					c-1.6,3.5-3.2,7.1-4.9,10.5l-5.2,10.2l-5.5,9.9c-15.2,26-32.4,50.4-52.2,73.1c-19.7,22.7-41.9,43.9-69.3,60.3l-10.7,5.7
					c-3.5,1.9-7.6,3.2-11.4,4.9l-5.5,2.2l-4.1,1.5l-3.8,1.7l-3.5,1.9c-4.4,2.7-7.7,5.9-9.6,9c-2,3.1-2.5,6.2-2.3,9.9
					c0.4,3.7,2,8.1,4.7,12.5c2.8,4.3,6.6,8.6,11,12.5c8.9,7.8,20.1,14.2,32,19c6,2.5,12.2,4.6,18.5,6.3l4.8,1.3l0.3,0.1l1.6,0.5
					c1.2,0.4,2.4,0.9,3.6,1.6c2.4,1.3,4.5,3.1,6.2,5.2c3.3,4.2,4.7,9,4.7,13.7c0,4.6-1.7,9.6-5.1,13.6c-1.7,2-3.7,3.7-5.9,4.8
					l-1.4,0.7l-0.3,0.1l-0.6,0.3l-4.9,2.3l-39.2,18.2l-19.2,9c-4.9,2.5-9.2,5.4-11,8.1c-1.1,1.3-1.6,2.4-1.9,3.5
					c-0.3,1.2-0.5,2.4-0.3,4.2c0.4,3.4,2.1,8.3,5,13.1c5.9,9.9,15,19.8,24.7,29.1c9.9,9.3,20.6,18,31.8,26.4l8.5,6.3l9,6.9
					c6.1,4.5,11.6,9.5,17.5,14.2c11.2,9.8,22.2,19.7,32.7,30c21.1,20.5,41.2,41.7,60.8,63.2c9.8,10.7,19.4,21.7,28.9,32.5l14.2,16.1
					c2.4,2.7,4.7,5.2,7,7.7c2.6,2.8,3.8,4,6.6,6.6c41.6,37.8,86.7,72.9,133.8,104.3c23.6,15.8,48,30.3,72.8,44
					c25,13.6,50.8,25.5,77.2,36.6l0.3,0.1c3,1.3,4.4,4.7,3.1,7.6C825.7,1835.5,822.8,1836.9,820,1836.2z"/>
			</g>
			<g>
				<path class="st4" d="M1827.4,1098.6c4.9,27.2,9.7,54.5,14.2,81.8c2.2,13.7,4.4,27.4,6.4,41.3l2.8,20.7c0.8,6.3,2,12.7,3.2,19.1
					c5.5,25.7,13.5,51.3,23.6,75.8c10,24.5,22.4,48,37.6,68.2c1.8,2.6,4,4.8,6,7.3c2,2.4,4,4.8,6.2,6.9l6.5,6.4l6.9,5.5l1.7,1.4
					l2.4,1.8c1.6,1.3,3.3,2.4,4.9,3.9c3.2,2.7,6.3,5.7,9.3,9.1c5.8,6.7,11,15,13.7,25c2.8,9.9,2,21.3-1.6,30.9
					c-3.6,9.7-9.7,17.3-16.2,23.5c-13.3,12.2-28.6,18.6-43.6,22.9c-15.2,4.1-30.4,5.8-45.4,5.9c-3.8,0.1-7.5-0.1-11.2-0.2l-0.7,0
					l-0.4,0c-0.1,0-0.4,0,0.2,0c1.5,0,3.3-0.2,4.9-0.8c3.4-1.2,5.9-3.6,7.3-6c1.4-2.5,2.1-5.2,1.7-8.3c-0.3-3.1-2-6.5-4.2-8.5
					l15,13.3l31,27.6l3.9,3.4l1.9,1.7l2.3,2.2c3.1,2.9,6.1,6.2,8.8,9.9c5.5,7.3,10.5,17.7,10.5,29.4c0.2,11.8-4.8,22.1-10.2,29.5
					c-5.5,7.5-11.7,13.2-18,18.1c-12.6,9.7-25.7,16.7-38.9,23c-13.2,6.2-26.5,11.6-39.8,16.4l-5,1.8l-4.6,1.8l-9.2,3.5
					c-6.1,2.6-12.2,5.2-18.3,7.9c-24.3,11.1-48,24.3-71.5,38c-23.5,13.8-46.8,28-70.1,42.7l-17.7,10.9c-6,3.6-11.8,7.2-18.7,11
					l-5.4,2.8l-4.7,2.2l-9.7,4.4c-6.5,2.9-13,5.6-19.6,8.3c-26.3,10.4-52.9,19.5-80,26.9c-54.1,14.9-109.4,24.4-165.1,27.7
					c-3.2,0.2-6-2.3-6.2-5.5c-0.2-2.9,1.7-5.4,4.4-6l0.1,0c26.8-6.7,53.3-13.3,79.6-20.8c26.2-7.6,52.2-15.8,77.8-24.8
					c25.6-9.1,50.8-18.9,75.4-30c6.1-2.8,12.2-5.6,18.2-8.5l8.9-4.5l4.6-2.3c1.6-0.8,2.5-1.4,3.8-2.1c5.2-3,11.1-6.7,16.8-10.3
					l17.4-11c46.9-29.4,94.9-58.2,146.7-81.6c6.5-2.9,13.1-5.6,19.8-8.4l10.2-3.8l5.1-1.9l4.8-1.7c12.6-4.5,25-9.3,36.8-14.9
					c11.7-5.6,23.1-11.8,32.3-19c4.6-3.6,8.5-7.4,11.2-11c2.7-3.7,3.7-6.6,3.6-8.8c0-2.2-0.9-5.1-3.6-8.7c-1.4-1.8-2.9-3.7-4.9-5.5
					l-1.4-1.4l-1.9-1.7l-3.9-3.4l-30.8-27.4l-15.9-14.2c-3.4-3.1-6-8.2-6.5-13c-0.5-4.8,0.5-9.3,2.8-13.3c2.3-3.9,6.2-7.5,11.2-9.3
					c2.5-0.9,5.1-1.3,7.5-1.2l1.7,0c3.1,0,6.3,0.2,9.4,0.1c12.6-0.1,24.9-1.6,36.4-4.7c11.4-3.2,22-8.2,29.1-14.8
					c3.5-3.3,6.1-6.8,7.3-10.1c1.1-3.3,1.5-6.3,0.5-9.7c-0.9-3.4-3-7.2-6.2-10.8c-1.6-1.8-3.5-3.6-5.5-5.4c-0.9-0.9-2.1-1.7-3.2-2.5
					l-4-3.1l-9.3-7.5l-8.3-8.1c-2.9-2.7-5.2-5.6-7.7-8.5c-2.4-2.9-5-5.7-7.2-8.7c-17.9-23.9-31.4-49.7-42.2-76.2
					c-10.9-26.5-19.5-53.8-25.5-82c-1.4-7.1-2.7-14.3-3.7-21.7l-2.7-20.3c-1.9-13.4-4.1-27-6.3-40.5c-4.5-27.1-9.2-54.2-14.1-81.3
					c-1.7-9.5,4.6-18.6,14.1-20.3C1816.6,1082.7,1825.7,1089,1827.4,1098.6L1827.4,1098.6z"/>
			</g>
			<g>
				<path class="st4" d="M1810.2,1119.7c-6.1,0-12-3-15.4-8.6c-5.2-8.5-2.6-19.6,5.9-24.9c226.5-139.9,294.2-548.6,218.5-741.2
					c-16.7-42.4-47.7-90.7-100.8-80.2c-234.9,46.6-419.4,235.7-508.5,344.3c-6.3,7.7-17.7,8.8-25.4,2.5c-7.7-6.3-8.8-17.7-2.5-25.4
					c92.2-112.3,283.5-308.1,529.4-356.8c60.6-12,110.8,24.4,141.5,102.4c39.3,99.9,41.8,259.8,6.5,407.4
					c-41.6,173.9-126.7,308.1-239.6,377.8C1816.7,1118.9,1813.5,1119.7,1810.2,1119.7z"/>
			</g>
			<g>
				<path class="st4" d="M528.6,934.3c-4.9,0-9.8-2-13.4-5.9C425.8,829.9,381.7,677,391.2,498c8-151.8,56-305.1,122.4-390.5
					c52.1-67.1,111.1-88,166-58.9c221.9,117.6,348.9,360.5,404.9,494.8c3.8,9.2-0.5,19.8-9.7,23.6c-9.2,3.8-19.8-0.5-23.6-9.7
					C997,427.5,874.6,192.9,662.7,80.5c-48.3-25.6-92.2,12.6-120.6,49.1C428.2,276.3,351.5,694.4,542,904.1
					c6.7,7.4,6.2,18.8-1.2,25.5C537.3,932.7,533,934.3,528.6,934.3z"/>
			</g>
			<g class="st6">
				<path class="st4" d="M1819.6,1691.7c-82.6,28.9-195,107.8-217.3,118.7c-22.3,10.9-214,124.8-560.9,73.9l-0.1,0
					c-144.3-21.2-254.6-61.9-335.6-103.6c-113.9-58.4-169.8-118.6-180.5-128.4c-18.2-16.8-103.2-124.7-173.9-176.1
					c-70.7-51.4-101.5-96.9-51.5-120.4c7.9-3.7,15-7,21.5-10c146.6,153.3,408.3,377.9,736.6,426.1c328.3,48.2,643.6-91.7,828-196.5
					c5.3,4.7,11.2,10,17.6,15.8C1944.7,1628,1902.2,1662.7,1819.6,1691.7z"/>
			</g>
			<g>
				<path class="st2" d="M551.2,581.9c13.4,144.3,89.2,232.4,89.2,232.4l7.4,3.4c20.2-28.8,57.7-57.2,100-82.8
					c33.6-20.2,70.3-38.7,103.7-54.1c68.4-31.6,95.2-114.6,59.1-180.8c-36.1-66.1-80.1-123.6-122.4-170.8
					c-32.2-35.7-63.4-65.6-89.6-88.7c-36-31.8-92.7-17-108.8,28.2C564.7,339,538.7,448.5,551.2,581.9z"/>
			</g>
			<g class="st6">
				<path class="st4" d="M735.9,665.3c2.3,25,6.5,48.2,11.9,69.6c33.6-20.2,70.3-38.7,103.7-54.1c68.4-31.6,95.2-114.6,59.1-180.8
					c-36.1-66.1-80.1-123.6-122.4-170.8c-5.9,6.4-10.6,14.1-13.8,23C749.4,422.4,723.4,531.9,735.9,665.3z"/>
				<path class="st8" d="M746.3,738.5l-0.7-3c-5.8-23.1-9.8-46.7-11.9-70c-12.5-134.7,14.1-245.1,38.6-314c3.2-8.9,8-16.9,14.2-23.8
					l1.7-1.8l1.7,1.9c49.4,55,90.7,112.6,122.7,171.2c17.6,32.3,21.1,70.8,9.6,105.7c-11.6,35-36.3,62.8-69.7,78.2
					c-39.3,18.2-74.2,36.3-103.5,54L746.3,738.5z M788.1,332.7c-5.1,6-9,12.8-11.7,20.4c-24.4,68.5-50.8,178.2-38.4,312v0
					c2,22.1,5.8,44.4,11.1,66.3c29-17.3,63-35,101.3-52.7c32.3-14.9,56.2-41.7,67.4-75.5c11.1-33.7,7.8-70.9-9.3-102.1
					C877.1,443.6,836.6,386.9,788.1,332.7z"/>
			</g>
			<g>
				<path class="st4" d="M642.1,805.4c0.8-2.4,1.6-4.5,2.8-6.3l0.5-0.7l1-1.2l2.1-2.4l4.1-4.7c2.7-3.2,5.7-6,8.6-9
					c2.9-3,5.8-5.8,8.9-8.5c12-11.2,24.9-21,37.9-30.4c26.2-18.7,53.8-34.8,81.7-49.7c14-7.5,28.1-14.6,42.4-21.5l21.4-10.1
					c2.9-1.6,5.9-3,8.7-4.7c2.7-1.9,5.6-3.5,8.1-5.6c20.8-15.9,34.2-41.4,34.7-67.6c0.4-13-2.1-26.1-7.3-38c-1-2.8-3.1-6.6-4.7-9.9
					l-5.1-10.3c-3.4-6.9-6.7-13.8-10.4-20.4l-10.9-20.2l-11.6-19.8c-3.8-6.7-8-13-12.1-19.5c-4.1-6.4-8.2-12.9-12.6-19.2
					c-34.3-50.7-73.7-98.1-117.7-140.7c-11-10.6-22.3-21-33.9-30.8c-2.9-2.5-5.8-4.9-8.7-7.3c-0.7-0.5-1.6-1.3-2.1-1.7l-1.5-1.1
					c-1-0.7-2.1-1.3-3.1-1.9c-4.3-2.2-9.3-3.5-14.2-3.3c-2.4,0.1-4.9,0.5-7.2,1.1c-1.2,0.3-2.3,0.8-3.4,1.2c-1.1,0.5-2.2,1-3.5,1.9
					c-5.2,3-9.9,7-14.3,11.6c-8.7,9.4-15.5,21.5-20.6,34.8c-1.3,3.3-2.5,6.7-3.6,10.1l-1.6,5.2l-1.5,5.5c-2.1,7.4-4.1,14.8-5.9,22.2
					c-3.8,14.9-7.1,29.9-10,44.9c-5.9,30.1-10.3,60.6-12.9,91.1c-5,60.9-3.6,122.9,12,181.1c1.6,7.4,4.2,14.4,6.5,21.5l3.6,10.7
					l4.2,10.8c2.7,7.2,5.6,14.4,8.6,21.5c2.9,7.1,6,14.2,9.1,21.1c6.3,13.9,12.9,27.7,20.5,40.5c3.8,6.4,7.7,12.6,12,18.1
					c2.1,2.8,4.3,5.3,6.4,7.4l1.6,1.5l1.4,1.1c0.5,0.4,0.7,0.4,1,0.7c0,0,0,0,0,0c0.1,0.1-0.3-0.1-0.5-0.2l-0.4-0.1
					C651,804.3,644.4,803.6,642.1,805.4z M653.5,830c-2.5,1.8-9.4,1.1-9.4,0.8l-1.1-0.3c-0.7-0.2-1.5-0.5-1.9-0.7
					c-0.9-0.4-1.8-0.8-2.7-1.3c-1.3-0.8-2.8-1.7-3.9-2.5l-3.2-2.5l-2.7-2.5c-3.5-3.4-6.4-6.7-9-10.1c-5.4-6.8-9.9-13.8-14.2-20.8
					c-8.5-14.1-15.6-28.4-22.3-42.9c-3.4-7.2-6.6-14.5-9.7-21.8c-3.2-7.3-6.2-14.6-9.1-22l-4.4-11l-4-11.5
					c-2.6-7.7-5.4-15.4-7.3-23.3c-17.5-62.7-19.4-127.7-14.9-191.2c2.4-31.8,6.6-63.4,12.4-94.7c2.9-15.6,6.1-31.2,9.9-46.7
					c1.8-7.8,3.8-15.5,5.9-23.2l1.5-5.8l1.8-6.1c1.2-4,2.6-8.1,4.1-12.1c6-16,14.3-31.8,26.7-45.6c6.2-6.8,13.5-13.1,21.8-18
					c2-1.2,4.3-2.5,6.8-3.6c2.5-1.1,5-2.1,7.5-2.9c5.1-1.6,10.5-2.5,15.8-2.7c10.7-0.5,21.5,2,31.1,6.8c2.4,1.2,4.7,2.6,6.9,4.1
					l3.2,2.4c1.1,0.8,1.6,1.3,2.5,2c3.1,2.5,6.3,5,9.3,7.6c12.4,10.2,24.2,21,35.8,31.9c23.1,22,45.1,45.2,65.7,69.5
					c20.7,24.3,40.2,49.5,57.9,76.1c4.6,6.5,8.8,13.3,13.1,20c4.3,6.8,8.7,13.4,12.6,20.4l12.1,20.7l11.3,21.1
					c3.9,7,7.4,14.2,10.8,21.4l5.2,10.8c1.7,3.8,3.5,6.8,5.1,11.3c7,16.8,10.3,35.2,9.4,53.4c-1.3,36.5-20.4,71.5-49.5,93.1
					c-3.6,2.8-7.5,5-11.3,7.5c-3.9,2.3-8,4.2-12.1,6.2l-21.2,9.5c-14.1,6.4-27.9,13.1-41.7,20c-27.5,13.9-54.2,29-79.5,45.9
					c-12.5,8.5-24.9,17.4-36,27.2c-2.9,2.4-5.6,4.9-8.3,7.4c-2.6,2.6-5.5,5-7.8,7.7l-3.7,4l-1.9,2l-0.9,1l-1.3,1.6
					C661.4,822.1,657.4,826.3,653.5,830z"/>
			</g>
			<g>
				<path class="st2" d="M1921.2,740.8c-46.1,137.4-140,205.8-140,205.8l-8,1.7c-13.1-32.7-43-68.8-78.4-103.5
					c-28.1-27.4-59.6-53.7-88.6-76.5c-59.4-46.4-66.4-133.4-16.2-189.5c50.3-56.1,106.3-102,158.3-138.2
					c39.5-27.4,76.8-49.3,107.5-65.8c42.3-22.7,94.1,4.7,99.4,52.4C1963.6,501.3,1963.8,613.8,1921.2,740.8z"/>
			</g>
			<g class="st6">
				<path class="st4" d="M1722.3,779.8c-8,23.8-17.4,45.4-27.5,65.1c-28.1-27.4-59.6-53.7-88.6-76.5
					c-59.4-46.4-66.4-133.4-16.2-189.5c50.3-56.1,106.3-102,158.3-138.2c4.2,7.6,7.1,16.2,8.1,25.6
					C1764.7,540.2,1764.9,652.7,1722.3,779.8z"/>
				<path class="st8" d="M1695.4,848.6l-2.2-2.1c-24.6-24-54.3-49.6-88.4-76.3c-29-22.7-46.7-55.3-50-92.1
					c-3.2-36.6,9-73.3,33.5-100.7c44.6-49.7,97.9-96.3,158.7-138.5l2-1.4l1.2,2.2c4.5,8.1,7.4,17,8.4,26.4
					c8.1,72.7,8.8,186.2-34.3,314.5v0c-7.4,22.1-16.7,44.1-27.6,65.4L1695.4,848.6z M1747.5,444c-59.6,41.7-112,87.6-155.8,136.4
					c-23.7,26.5-35.5,62-32.4,97.3c3.1,35.5,20.3,67,48.3,88.9c33.2,26,62.3,51,86.6,74.5c10.2-20.2,18.9-41.1,26-62v0
					c42.8-127.5,42.1-240.3,34.1-312.5C1753.3,458.5,1751.1,451,1747.5,444z"/>
			</g>
			<g>
				<path class="st4" d="M1764.8,958.9c-3-4.6-5.9-9.5-8.4-14.6l-0.9-1.9l-0.7-1.2l-1.4-2.4l-2.7-4.7c-1.7-3.2-3.9-6.2-5.9-9.3
					c-2-3.1-4-6.2-6.3-9.1c-8.6-12.1-18.6-23.5-28.9-34.7c-20.7-22.2-43.3-43.1-66.9-62.9c-11.8-9.9-23.8-19.6-36-29l-18.4-14.1
					c-3.4-2.9-7-5.7-10.3-8.8c-3.1-3.3-6.5-6.3-9.3-9.9c-23.4-27.7-33.9-66.1-26.9-102c3.3-17.9,10.7-35.1,21.4-49.9
					c2.7-4,5.1-6.6,7.6-9.9l7.5-9.3c5-6.3,10-12.4,15.4-18.4l15.9-18l16.5-17.3c5.4-5.9,11.2-11.3,16.9-16.9
					c5.7-5.6,11.4-11.2,17.3-16.5c23.3-21.8,48.1-42,73.8-60.9c25.7-18.9,52.3-36.5,79.9-52.6c13.8-8,27.8-15.7,42.2-22.9
					c3.6-1.8,7.2-3.5,10.8-5.3c1-0.5,1.6-0.8,2.9-1.4l3.7-1.6c2.5-0.9,5.1-1.8,7.7-2.4c10.4-2.5,21.5-2.5,31.8,0.5
					c5.2,1.4,10.2,3.6,14.8,6.3c2.3,1.3,4.5,2.9,6.7,4.5c2.1,1.7,4.1,3.5,5.8,5.1c6.9,6.7,12.6,14.5,17.1,22.5
					c8.9,16.3,13.4,33.6,15.6,50.5c0.5,4.2,1,8.5,1.2,12.7l0.4,6.3l0.2,6c0.3,8,0.4,15.9,0.4,23.9c0.1,15.9-0.3,31.8-1,47.7
					c-1.5,31.8-4.6,63.5-9.6,95c-10.2,62.8-26.9,125.6-58.3,182.7c-3.6,7.3-8.1,14.1-12.4,21l-6.5,10.3l-6.8,9.7
					c-4.5,6.5-9.1,13-13.9,19.3c-4.6,6.4-9.5,12.7-14.4,19c-9.9,12.5-20.1,24.9-31.6,36.6c-5.8,5.9-11.7,11.6-18.5,17
					c-3.4,2.7-7,5.3-11.1,7.8l-3.2,1.8l-3.7,1.7c-1.2,0.6-2.9,1.1-4.3,1.6c-0.9,0.2-1.9,0.5-2.9,0.6c-0.4,0.1-1.3,0.2-2,0.2
					l-1.1,0.1C1773.7,962.2,1766.8,961.2,1764.8,958.9z M1781.5,937.6c-1.8-2.3-8.4-3.2-8.2-2.9h-0.4c-0.2,0-0.6,0.1-0.5,0.1
					c0,0,0,0,0,0c0.4-0.2,0.6-0.2,1.2-0.5l1.6-0.8l1.9-1.1c2.6-1.6,5.3-3.5,8-5.8c5.4-4.4,10.7-9.5,15.8-14.8
					c10.3-10.7,19.9-22.6,29.2-34.7c4.7-6.1,9.3-12.2,13.7-18.5c4.5-6.2,8.9-12.5,13.3-18.9l6.5-9.5l5.9-9.6
					c3.9-6.4,8-12.7,11.3-19.5c28.5-53.1,44.1-113.1,53.1-173.5c4.5-30.3,7.2-60.9,8.3-91.6c0.5-15.3,0.8-30.7,0.5-46
					c-0.1-7.7-0.3-15.3-0.6-23l-0.2-5.7l-0.4-5.4c-0.2-3.6-0.7-7.1-1.1-10.6c-1.9-14-5.8-27.4-12.1-38.5
					c-3.2-5.5-6.9-10.5-11.3-14.6c-1.1-1.1-2.1-1.9-3-2.6c-1-0.7-2-1.4-3.1-2c-2.1-1.2-4.4-2.1-6.8-2.8c-4.7-1.3-9.8-1.2-14.6,0
					c-1.2,0.3-2.3,0.7-3.5,1.1l-1.7,0.8c-0.5,0.2-1.6,0.8-2.4,1.2c-3.4,1.7-6.8,3.3-10.2,5.1c-13.6,6.9-26.9,14.5-40,22.2
					c-52.6,31.4-101.8,68.5-146.8,110c-5.7,5.1-11.2,10.5-16.6,15.8c-5.5,5.4-11.1,10.6-16.3,16.2l-15.9,16.6l-15.2,17.2
					c-5.2,5.6-10,11.6-14.8,17.5l-7.3,8.8c-2.3,2.9-5.2,6.1-6.8,8.6c-7.8,10.5-13.2,22.6-15.8,35.3c-5.5,25.6,1.8,53.5,18.3,73.8
					c2,2.6,4.5,4.8,6.6,7.3c2.4,2.3,5,4.3,7.4,6.5l18.5,14.8c12.3,9.9,24.4,20.2,36.4,30.6c23.8,21,47,42.9,68.2,67.1
					c10.5,12.2,20.8,24.6,30,38.3c2.4,3.3,4.6,6.8,6.7,10.3c2.1,3.5,4.4,6.9,6.3,10.7l3,5.5l1.5,2.8l0.7,1.4l0.3,0.8
					C1780.9,932.9,1781.3,935,1781.5,937.6z"/>
			</g>
			<g>
				<g>
					<g>
						<path class="st2" d="M1392.5,1894.7c-5,0-10.1-0.4-15.1-1.1c-54.7-8-93.1-56.7-88.2-111.5l-462.8-67.6
							c-9.7,48.3-52,83.2-101.4,83.2c-5,0-10.1-0.4-15.1-1.1c-56.5-8.3-95.8-61-87.6-117.5c4.6-31.2,22.6-58.1,49.7-74.1
							c-21.3-23.1-30.9-54-26.4-85.2c7.4-50.5,51.4-88.7,102.4-88.7c5,0,10.1,0.4,15.1,1.1c54.9,8,93.3,57,88.2,112l462.7,67.6
							c9.5-48.6,51.9-83.6,101.5-83.6c5,0,10.1,0.4,15.1,1.1c56.5,8.3,95.8,61,87.6,117.5c-4.6,31.2-22.6,58.1-49.7,74.1
							c21.3,23.1,31,54,26.4,85.2C1487.5,1856.6,1443.5,1894.7,1392.5,1894.7C1392.5,1894.7,1392.5,1894.7,1392.5,1894.7z"/>
					</g>
					<g>
						<path class="st4" d="M747.9,1433.2c4.9,0,9.8,0.4,14.8,1.1c54.3,7.9,92.2,57.5,86,111.7l467,68.2c8.5-49,51.1-83.9,99.7-83.9
							c4.9,0,9.8,0.4,14.8,1.1c55.4,8.1,93.8,59.6,85.7,115c-4.8,32.5-24.4,59.1-51.1,73.9c21.3,21.8,32.5,53,27.8,85.4
							c-7.4,50.4-50.7,86.7-100.2,86.7c-4.9,0-9.8-0.4-14.8-1.1c-54.1-7.9-92-57.3-86.1-111.2l-467.1-68.2
							c-8.7,48.7-51.2,83.5-99.6,83.5c-4.9,0-9.8-0.4-14.8-1.1c-55.4-8.1-93.8-59.6-85.7-115c4.7-32.5,24.4-59.1,51-73.9
							c-21.3-21.8-32.5-53-27.8-85.4C655.1,1469.5,698.4,1433.2,747.9,1433.2 M747.9,1428.7c-52.1,0-97.1,39-104.7,90.6
							c-4.5,31,4.6,61.7,25.1,85.1c-26.4,16.5-43.9,43.3-48.4,74.3c-8.4,57.8,31.7,111.7,89.5,120.1c5.1,0.7,10.3,1.1,15.4,1.1
							c49.8,0,92.5-34.6,103.2-82.9l458.6,67c-3.8,55.1,35.2,103.8,90.3,111.8c5.1,0.7,10.3,1.1,15.4,1.1c52.1,0,97.1-39,104.7-90.6
							c4.5-31-4.6-61.7-25.1-85.1c26.4-16.5,43.9-43.3,48.4-74.3c8.4-57.8-31.7-111.7-89.5-120.1c-5.1-0.7-10.3-1.1-15.4-1.1
							c-50,0-92.8,34.8-103.3,83.4l-458.5-67c4-55.3-34.9-104.2-90.3-112.3C758.2,1429.1,753,1428.7,747.9,1428.7L747.9,1428.7z"/>
					</g>
				</g>
				<g>
					<path class="st4" d="M1392.4,1908.3c-5.6,0-11.3-0.4-17-1.2c-57.5-8.4-99.1-56.7-100.2-113.3l-438.8-64.1
						c-17.1,54.2-70.8,88.8-128.6,80.3c-63.9-9.3-108.4-69-99-132.9c4.4-30.1,19.9-56.6,43.3-75.1c-17.2-24.4-24.5-54.2-20.1-84.3
						c9.3-63.9,68.9-108.4,132.9-99c57.8,8.4,99.4,56.9,100.2,113.8l438.6,64.1c16.9-54.5,70.7-89.3,128.7-80.8
						c63.9,9.3,108.4,69,99,132.9c-4.4,30.1-19.9,56.6-43.4,75.1c17.2,24.4,24.5,54.2,20.1,84.3
						C1499.8,1866.2,1449.6,1908.3,1392.4,1908.3z M824.5,1696.1c0.8,0,1.5,0.1,2.3,0.2l467.1,68.2c8.4,1.2,14.4,8.9,13.4,17.4
						c-5,45.9,26.9,87.2,72.7,93.9c46.7,6.8,90.2-25.6,97-72.3c3.9-26.6-4.7-52.9-23.4-72.1c-3.4-3.5-5-8.4-4.3-13.3
						c0.7-4.9,3.7-9.1,7.9-11.5c23.5-13.1,39.2-35.8,43.1-62.4c6.8-46.7-25.6-90.2-72.3-97c-46.2-6.7-88.6,24-96.6,69.9
						c-1.5,8.4-9.4,14.2-17.9,12.9l-467-68.2c-8.4-1.2-14.4-8.9-13.4-17.4c5.2-46.1-26.7-87.5-72.6-94.3
						c-46.7-6.8-90.2,25.6-97,72.3c-3.9,26.6,4.7,52.9,23.4,72.1c3.4,3.5,5,8.4,4.3,13.3s-3.7,9.1-7.9,11.5
						c-23.5,13.1-39.2,35.8-43.1,62.4c-6.8,46.7,25.6,90.2,72.3,97c45.9,6.7,88.4-23.8,96.6-69.5
						C810.3,1701.5,817,1696.1,824.5,1696.1z"/>
				</g>
				<g class="st6">
					<path class="st4" d="M1486.4,1573.2c0,0,3.1,86.6-54.6,117.8c-12.9,7-18.7,22-13.8,35.8c6.5,18.3,9.6,41.7-8.9,55.6
						c-15,11.2-36.2,10.2-50.8-1.6c-9.9-8-20.5-21.6-27.6-44.5c-2.9-9.5-11-16.4-20.8-17.7l-477.2-64.2
						c-26.7-3.6-38.9,26.7-48.5,33.4c-33.6,46.2-90.7,48-100.2-14.8v0c5.4-22.1,15.2-81.5-5.7-90.5l-4.9-2.1l-29.9,53.1l-20.1,60.4
						l11.6,47.2l46.2,44.5l50,9.6l42.6-12.5l43.8-48.1L832,1713l459.3,62.2l7.8,55.7l41.7,47.5l37.1,12.1l47.7-1.1l31-23.3
						l36.6-62.1l0.1-21.6l-6.8-42.7l-18.5-15.9l19.9-20.9C1487.9,1702.7,1549.7,1657.5,1486.4,1573.2z"/>
				</g>
			</g>
			<g>
				<g>
					<path class="st2" d="M898.6,1514.9c13,61.7,55.6,111.9,109,110.3c60.9-1.8,80.5-48.1,85.7-65.5l1.2,0.1l-0.9-0.1l1.2,0.2
						c1.1,18.2,9.5,67.7,68.4,83.4c51.6,13.7,104.5-25.4,131.3-82.5l-25.4-90.5l-289-54.7L898.6,1514.9z"/>
				</g>
				<g>
					<path class="st4" d="M901.2,1514.4c9.3,9.9,15.6,19.3,21.8,28.5c3.2,4.5,5.9,9.1,8.9,13.5c1.3,2.3,2.8,4.5,4.3,6.6
						c1.5,2.1,2.9,4.4,4.7,6.3c12.8,16.4,28.9,29,46.5,34.2c4.4,1.5,8.8,2.2,13.4,2.7l6.9,0.3l7.4-0.4c9.8-0.9,19-3.3,27.3-7.5
						c8.2-4.2,15.6-10.2,21.5-17.8c5.9-7.6,10.5-16.6,13.4-26l0-0.1c2.4-7.8,9.9-12.6,17.6-11.9l1.2,0.1l-3.4,33.7l-0.9-0.1
						l4.4-33.6l1.2,0.2c8,1.2,13.9,7.8,14.4,15.6l0,0.1c1.3,19.7,9.3,39,23.4,51.2c7,6.3,15.5,11,24.8,14.4l7.2,2.2
						c2.3,0.5,4.6,0.9,6.9,1.3c4.6,0.5,9.3,0.7,14,0.1c9.3-1,18.4-3.8,27.4-7.7c9-3.8,18-8.8,26.7-15c8.7-6.1,17.2-13,25.5-20.6
						c8.3-7.7,16.1-16.2,24.6-25.1l0.1-0.1c1-1.1,2.7-1.1,3.8-0.1c0.7,0.6,0.9,1.5,0.8,2.4c-1.8,12.4-6,24.4-11.5,35.9
						c-5.7,11.4-13.2,22.1-22.3,31.6c-9,9.6-19.9,17.9-32.3,24c-12.4,6-26.5,9.6-40.8,10c-7.2,0.3-14.3-0.4-21.4-1.5
						c-3.5-0.8-7-1.4-10.4-2.3l-9.7-3.1c-12.8-4.6-25.4-11.6-36-21.1c-10.6-9.5-19.2-21.4-24.8-34.2c-5.7-12.9-8.9-26.3-9.8-40.2
						l14.4,15.7l-1.2-0.2c-9.3-1.4-15.7-10-14.3-19.2c1.3-9.1,9.7-15.4,18.7-14.4l0.9,0.1c9.3,1.1,16,9.5,14.9,18.8
						c-1.1,9.1-9.2,15.7-18.3,14.9l-1.2-0.1l17.7-12c-4,13.3-10.1,25.7-18.6,37c-8.2,11.4-19.2,21.1-31.8,28.2
						c-12.5,7.1-26.4,11.3-40.1,13.1l-10.3,1c-3.5,0.1-7.2-0.1-10.9-0.1c-7.2-0.6-14.5-1.7-21.4-3.8c-13.9-4.2-26.6-11.1-37.3-19.9
						c-10.8-8.7-19.9-19-27.1-30.1c-7.2-11.1-13.6-22.7-16.7-35.4c-2.9-12.7-3.6-25.9,0.6-39.1c0.5-1.6,2.2-2.4,3.8-1.9
						C900.3,1513.7,900.8,1514,901.2,1514.4L901.2,1514.4z"/>
				</g>
				<g>
					<path class="st4" d="M1095.1,1575.2c-0.7,0-1.4,0-2.1-0.1c-8.4-1.1-14.2-8.9-13.1-17.2l12-87.5c1.1-8.4,8.9-14.3,17.2-13.1
						c8.4,1.1,14.2,8.9,13.1,17.2l-12,87.5C1109.2,1569.7,1102.6,1575.2,1095.1,1575.2z"/>
				</g>
				<g>
					<path class="st4" d="M1216.3,1472.3c-5.1,34.8-61.7,74.2-123,65.2c-61.3-9-104.2-63-99.1-97.8c5.1-34.8,55.3-30.4,116.6-21.4
						S1221.4,1437.5,1216.3,1472.3z"/>
				</g>
				<g>
					<g>
						<path class="st2" d="M1154.7,1453c-1.1,7.6-24.2,14.7-50.8,10.8c-26.6-3.9-46.7-17.3-45.6-24.9s22.8-5.1,49.4-1.2
							C1134.3,1441.6,1155.8,1445.4,1154.7,1453z"/>
					</g>
					<g>
						<path class="st4" d="M1119,1467c-5.1,0-10.3-0.4-15.5-1.1c-25.4-3.7-48.8-17.2-47.3-27.3c1.4-9.6,22.3-7.2,51.8-2.9
							c29.4,4.3,50.1,8.1,48.7,17.7c-0.7,4.8-7,8.9-17.4,11.4C1133.1,1466.2,1126.2,1467,1119,1467z M1071.5,1436
							c-6.4,0-10.9,0.8-11.2,3.2c-0.8,5.4,17.2,18.7,43.9,22.6c12,1.8,24.2,1.4,34.2-1c9.4-2.3,14-5.7,14.3-8l0,0
							c0.9-6.2-29.1-10.7-45.3-13C1097.3,1438.2,1081.9,1436,1071.5,1436z"/>
					</g>
				</g>
				<g class="st6">
					<path class="st4" d="M1281.6,1578.6c-14.2,56.8-66.9,78.4-118.5,64.7c-58.9-15.6-67.3-65.2-68.4-83.4l-1.2-0.2
						c-6.3,17.1-28.6,62.1-89.5,60.2c-53.3-1.7-105-37.7-102.2-96.1l7.2,1.3c12.7,27.4,66.4,46,102,47.1c30.8,1,51.7-10,65.7-23.4
						l37.3,5.5c9.5,16.8,26.4,33.4,56.2,41.2c34.4,9.2,86.6,4.6,106.6-18L1281.6,1578.6z"/>
				</g>
			</g>
			<g>
				<g>
					
						<ellipse transform="matrix(0.236 -0.9717 0.9717 0.236 -545.9395 1726.1913)" class="st4" cx="824.9" cy="1210.3" rx="139.9" ry="98.6"/>
				</g>
				<g>
					
						<ellipse transform="matrix(0.236 -0.9717 0.9717 0.236 -508.2347 1743.2109)" class="st2" cx="854.6" cy="1194.8" rx="47" ry="29.8"/>
				</g>
			</g>
			<g>
				<path class="st4" d="M1545.8,1270.1c-14.6,2.4-29.6,5.5-43.5,9.5c-14.1,4-27.5,9-40.2,14.9c-6.4,2.8-12.4,6.4-18.5,9.7l-8.7,5.6
					c-1.4,1-2.9,1.8-4.3,2.8l-4.1,3.1c-11.2,7.9-20.6,17.9-30,28.1l-21.7-31.8c1.4-0.4,2.2-0.6,3.2-0.8c1-0.2,1.9-0.4,2.7-0.6
					c1.8-0.3,3.5-0.7,5.3-0.9c3.5-0.6,6.9-0.9,10.3-1.2c6.8-0.6,13.7-0.6,20.4-0.4c13.6,0.6,27,2.9,39.9,7
					c12.8,4.2,25.2,9.7,36.1,17.3c11.2,7,20.7,16.3,29.1,25.9c2.5,2.9,2.2,7.3-0.7,9.8c-2.1,1.9-5.1,2.2-7.5,1.1l-0.8-0.4
					c-5.5-2.5-10.4-5.5-15.7-7.9c-5.4-2.2-10.4-4.7-15.8-6.4c-10.6-3.8-21.4-6.3-32.2-7.8c-10.8-1.6-21.7-1.9-32.4-1.3
					c-5.4,0.3-10.7,1-15.9,1.8c-2.6,0.5-5.2,0.9-7.7,1.5c-1.3,0.3-2.5,0.6-3.7,0.9c-0.6,0.1-1.2,0.3-1.7,0.4l-1.2,0.4l-0.5,0.1
					c-10.6,3.1-21.8-3-24.9-13.6c-1.9-6.5-0.3-13.4,3.7-18.3c10.9-13.4,22.8-26.4,37.2-36.3c6.8-5.5,14.7-9.3,22.1-13.7
					c7.9-3.5,15.6-7.4,23.9-9.8c16.2-5.4,33.1-8.4,49.8-8.9c16.8-0.4,33.2,1.1,49.5,6.3c3.7,1.2,5.7,5.1,4.6,8.8
					c-0.8,2.6-3,4.4-5.5,4.8L1545.8,1270.1z"/>
			</g>
		</g>
	</g>
</g>
</svg>
